<svg width="120" height="26" viewBox="0 0 120 26" fill="none" xmlns="http://www.w3.org/2000/svg">
<path d="M8.68003 20.72C6.60803 20.72 5.09603 19.6 4.53603 18.844H4.48003V25.228H2.83569e-05V5.93597H4.48003V7.36397H4.53603C5.09603 6.60797 6.60803 5.48797 8.68003 5.48797C12.488 5.48797 14.924 8.39997 14.924 13.104C14.924 17.808 12.488 20.72 8.68003 20.72ZM4.56403 13.104C4.56403 15.904 5.62803 17.36 7.44803 17.36C9.26803 17.36 10.332 15.904 10.332 13.104C10.332 10.304 9.26803 8.84797 7.44803 8.84797C5.62803 8.84797 4.56403 10.304 4.56403 13.104ZM17.4957 4.92797C17.4957 1.42797 18.8397 -2.83718e-05 21.9197 -2.83718e-05C22.7597 -2.83718e-05 23.5157 0.0839722 24.4677 0.279971V3.44397C23.9357 3.38797 23.7117 3.35997 23.3477 3.35997C22.5637 3.35997 21.9757 3.49997 21.9757 5.03997V5.93597H24.4677V9.29597H21.9757V20.272H17.4957V9.29597H15.5637V5.93597H17.4957V4.92797ZM29.4199 20.72C26.6199 20.72 24.8559 19.068 24.8559 16.52C24.8559 13.552 27.2919 12.404 30.3439 11.76C31.9119 11.424 34.1239 11.2 34.1239 9.77197C34.1239 8.98797 33.5079 8.48397 32.2199 8.48397C30.5679 8.48397 29.8119 9.15597 29.6719 10.556H25.4159C25.5559 7.81197 27.5719 5.45997 32.4159 5.45997C36.3079 5.45997 38.4639 7.02797 38.4639 11.424V16.968C38.4639 17.724 38.5479 18.06 38.9959 18.06C39.1079 18.06 39.1919 18.06 39.3599 18.032V20.16C38.4639 20.328 37.5399 20.412 36.8959 20.412C35.1039 20.412 34.4319 19.74 34.2079 18.536H34.1519C33.1439 19.796 31.4919 20.72 29.4199 20.72ZM29.4479 16.044C29.4479 17.136 30.1479 17.64 31.2959 17.64C33.0879 17.64 34.1239 16.128 34.1239 14.476V13.272C33.5359 13.496 32.8639 13.664 31.6879 13.944C30.0359 14.336 29.4479 15.036 29.4479 16.044ZM41.8731 4.92797C41.8731 1.42797 43.2171 -2.83718e-05 46.2971 -2.83718e-05C47.1371 -2.83718e-05 47.8931 0.0839722 48.8452 0.279971V3.44397C48.3131 3.38797 48.0891 3.35997 47.7251 3.35997C46.9411 3.35997 46.3531 3.49997 46.3531 5.03997V5.93597H48.8452V9.29597H46.3531V20.272H41.8731V9.29597H39.9411V5.93597H41.8731V4.92797ZM51.3275 4.92797C51.3275 1.42797 52.6715 -2.83718e-05 55.7515 -2.83718e-05C56.5915 -2.83718e-05 57.3475 0.0839722 58.2995 0.279971V3.44397C57.7675 3.38797 57.5435 3.35997 57.1795 3.35997C56.3955 3.35997 55.8075 3.49997 55.8075 5.03997V5.93597H58.2995V9.29597H55.8075V20.272H51.3275V9.29597H49.3955V5.93597H51.3275V4.92797ZM62.0419 20.72C60.7259 20.72 59.6899 19.684 59.6899 18.368C59.6899 17.08 60.7259 16.016 62.0419 16.016C63.3299 16.016 64.3939 17.08 64.3939 18.368C64.3939 19.684 63.3299 20.72 62.0419 20.72ZM73.0691 17.834C72.9541 18.179 72.8161 18.708 72.8161 19.007C72.8161 19.375 72.9081 19.582 73.2531 19.582C74.1961 19.628 75.3001 18.087 76.1281 16.339L76.6341 16.362C75.7601 18.317 74.2421 20.502 72.6781 20.456C71.7811 20.433 71.4821 19.927 71.5051 19.214C71.5051 18.823 71.6431 18.294 71.8041 17.788L73.0001 14.177H72.7241C71.5971 16.661 69.2511 20.571 67.4111 20.571C66.1461 20.571 65.6401 19.421 65.6401 17.811C65.6401 13.878 69.2971 7.87497 72.3561 7.87497C73.7131 7.87497 74.3571 8.86397 74.2421 10.382H74.2651L76.4731 3.75797C76.8411 2.69997 76.4271 2.33197 74.7251 2.33197L74.8631 1.87197C77.0481 1.87197 77.7611 1.75697 78.2671 1.22797L78.5431 1.31997L73.0691 17.834ZM67.8021 19.49C69.3201 19.49 72.0341 15.373 72.9771 12.774C73.2301 12.084 73.5061 11.256 73.5061 10.336C73.5061 9.36997 73.2071 8.72597 72.3791 8.72597C70.0101 8.72597 66.9971 14.085 66.9971 17.65C66.9971 18.823 67.2041 19.49 67.8021 19.49ZM79.508 20.571C77.99 20.571 77.07 19.398 77.07 17.443C77.07 13.763 80.221 7.87497 83.418 7.87497C84.499 7.87497 85.166 8.61097 85.166 9.69197C85.166 12.084 82.038 14.591 78.772 15.12C78.565 15.948 78.45 16.753 78.45 17.397C78.45 18.8 79.094 19.559 80.06 19.559C81.509 19.559 82.912 17.834 84.016 15.442H84.476C83.303 18.432 81.532 20.571 79.508 20.571ZM78.933 14.476C81.624 13.878 84.039 11.969 84.039 9.69197C84.039 9.02497 83.855 8.58797 83.211 8.58797C81.44 8.58797 79.738 11.647 78.933 14.476ZM87.8378 20.571C86.0208 20.571 84.8018 19.352 84.8018 18.225C84.8018 17.719 85.1008 17.443 85.4918 17.443C85.8598 17.443 85.9518 17.719 86.1358 18.294C86.4578 19.283 87.0098 19.904 88.1368 19.904C89.3788 19.904 89.9998 18.961 89.9998 17.719C89.9998 16.914 89.7008 16.27 89.2178 15.488L88.5278 14.292C87.6768 12.889 87.2628 12.107 87.2628 11.095C87.2628 9.18597 88.8038 7.82897 90.6898 7.82897C92.2538 7.82897 93.1508 8.90997 93.1508 9.64597C93.1508 10.129 92.8058 10.405 92.4608 10.405C92.0928 10.405 91.9548 10.083 91.8168 9.66897C91.5638 9.00197 91.2188 8.47297 90.2528 8.47297C89.1718 8.47297 88.4358 9.18597 88.4358 10.451C88.4358 11.21 88.7578 12.038 89.2868 12.912L89.9538 14.085C90.8278 15.603 91.1728 16.178 91.1728 17.144C91.1728 19.168 89.7468 20.571 87.8378 20.571ZM96.2565 10.796C96.4635 10.198 96.6705 9.46197 96.6935 9.18597C96.6935 8.84097 96.5555 8.72597 96.3715 8.72597C95.5895 8.72597 94.3705 10.198 93.5655 11.532H93.0595C94.0715 9.73797 95.6585 7.87497 97.1075 7.89797C97.7055 7.92097 98.0045 8.38097 97.9815 8.95597C97.9815 9.43897 97.8205 10.083 97.5215 10.865L95.1065 17.857C94.9915 18.202 94.8535 18.731 94.8305 19.03C94.8075 19.398 94.8995 19.605 95.2675 19.628C96.2105 19.651 97.3145 18.133 98.1885 16.408L98.6715 16.431C97.7975 18.386 96.2335 20.548 94.6695 20.479C93.7725 20.456 93.4735 19.927 93.5195 19.237C93.5195 18.823 93.6575 18.294 93.8415 17.788L96.2565 10.796ZM98.5105 5.11497C97.8205 5.11497 97.3605 4.67797 97.3605 4.01097C97.3605 3.32097 97.8205 2.90697 98.5105 2.90697C99.1775 2.90697 99.6145 3.32097 99.6145 4.01097C99.6145 4.67797 99.1775 5.11497 98.5105 5.11497ZM101.624 25.608C98.289 25.608 96.035 24.366 96.035 22.825C96.035 21.238 98.013 20.571 100.681 20.272C99.738 19.835 98.956 19.329 98.956 18.616C98.956 17.443 100.658 16.937 102.084 16.73C100.957 16.316 100.29 15.143 100.29 13.671C100.29 10.727 102.636 7.82897 105.143 7.82897C105.879 7.82897 106.454 8.08197 106.891 8.54197C107.604 8.05897 108.478 7.80597 109.099 7.80597C109.697 7.80597 109.996 7.98997 109.996 8.33497C109.996 8.63397 109.766 9.04797 109.214 9.04797C108.731 9.04797 108.363 8.74897 107.765 8.74897C107.558 8.74897 107.374 8.77197 107.167 8.88697C107.535 9.43897 107.719 10.175 107.719 11.003C107.719 13.809 105.672 16.569 103.349 16.845C101.532 17.098 100.313 17.489 100.313 18.179C100.313 18.708 100.865 19.099 102.36 19.651L104.637 20.525C106.316 21.169 106.96 21.698 106.96 22.687C106.96 24.481 104.683 25.608 101.624 25.608ZM102.981 16.27C104.936 16.27 106.477 13.165 106.477 10.635C106.477 9.30097 106.04 8.42697 105.005 8.42697C103.05 8.42697 101.509 11.555 101.509 14.062C101.509 15.373 101.946 16.27 102.981 16.27ZM97.208 22.71C97.208 24.113 99.531 24.849 101.923 24.849C104.522 24.849 105.695 24.044 105.695 23.032C105.695 22.365 105.051 21.905 104.154 21.583L101.555 20.617L101.348 20.548C98.795 20.893 97.208 21.537 97.208 22.71ZM112.238 10.819C112.445 10.198 112.675 9.46197 112.675 9.18597C112.675 8.84097 112.537 8.74897 112.353 8.72597C111.571 8.72597 110.352 10.198 109.547 11.555L109.064 11.532C110.053 9.73797 111.64 7.87497 113.089 7.89797C113.687 7.92097 113.986 8.38097 113.963 8.95597C113.963 9.43897 113.756 10.06 113.48 10.842L111.962 15.028H112.146C114.676 9.69197 116.47 7.87497 117.988 7.87497C118.839 7.87497 119.299 8.42697 119.299 9.30097C119.299 11.049 117.643 14.292 116.194 17.903C116.079 18.248 115.918 18.777 115.895 19.076C115.872 19.421 115.964 19.651 116.332 19.674C117.275 19.72 118.402 18.225 119.299 16.5L119.782 16.546C118.862 18.478 117.275 20.617 115.711 20.525C114.814 20.456 114.538 19.95 114.584 19.237C114.607 18.823 114.722 18.294 114.906 17.811C116.217 14.476 117.873 11.026 117.873 9.78397C117.873 9.20897 117.712 8.93297 117.321 8.93297C116.24 8.93297 113.687 11.693 110.306 20.272H108.995L112.238 10.819Z" fill="#26291D"/>
</svg>
